<svg width="109" height="20" viewBox="0 0 109 20" fill="none" xmlns="http://www.w3.org/2000/svg">
<path d="M62.4897 5.68751C64.0258 5.68751 65.4767 5.68751 66.9902 5.68751C67.7111 8.1831 68.4301 10.6716 69.1904 13.3019C69.9591 10.6967 70.6942 8.20696 71.4364 5.69138C72.7365 5.69138 74.0184 5.69138 75.3881 5.69138C76.1265 8.16762 76.8713 10.6664 77.6625 13.3213C78.4144 10.6909 79.1231 8.21018 79.8505 5.66365C81.885 5.66365 83.8912 5.66365 85.9444 5.66365C85.9444 4.668 85.9444 3.75166 85.9444 2.78373C87.394 2.39166 88.8107 2.00862 90.3152 1.60107C90.3152 2.97526 90.3152 4.27142 90.3152 5.64044C91.296 5.64044 92.2085 5.64044 93.1732 5.64044C93.1732 6.96626 93.1732 8.21986 93.1732 9.55341C92.2665 9.55341 91.3534 9.55341 90.3945 9.55341C90.3661 9.78879 90.3307 9.95064 90.33 10.1125C90.3281 11.5512 90.3255 12.9898 90.3378 14.4285C90.3468 15.4448 90.7156 15.8072 91.7487 15.8356C92.2394 15.8491 92.7315 15.8382 93.217 15.8382C93.3447 16.3154 93.3725 18.809 93.2544 19.6144C92.8946 19.6583 92.518 19.7163 92.1388 19.7473C91.0858 19.833 90.034 19.8279 89.0016 19.5744C87.543 19.2159 86.5757 18.3234 86.2088 16.8532C86.0746 16.3166 85.985 15.7556 85.974 15.2036C85.9431 13.5934 85.9624 11.9826 85.9618 10.3724C85.9618 10.1415 85.9618 9.91066 85.9618 9.63595C84.9848 9.63595 84.0737 9.63595 83.1128 9.63595C82.9471 10.1499 82.782 10.6574 82.6208 11.1662C81.7851 13.803 80.9506 16.4405 80.1136 19.0773C79.9389 19.6273 79.9343 19.6318 79.3617 19.6344C78.288 19.6402 77.2143 19.6402 76.1407 19.6396C76.0143 19.6396 75.8885 19.6177 75.7093 19.6015C74.9561 17.1246 74.2035 14.649 73.451 12.1728C73.4194 12.1709 73.3871 12.1689 73.3555 12.167C72.6185 14.6226 71.8814 17.0782 71.1295 19.5815C69.745 19.5815 68.3779 19.5815 66.927 19.5815C65.4019 15.0127 63.9755 10.3711 62.4897 5.68751Z" fill="#101218"/>
<path d="M50.0138 11.1268C49.1136 10.008 48.2688 8.95689 47.3686 7.83807C47.7026 7.48211 48.0219 7.11519 48.3681 6.776C50.6464 4.54287 53.3619 3.83546 56.4249 4.61767C59.9555 5.51918 62.3163 8.92143 62.0706 12.5578C61.892 15.2081 60.7235 17.2852 58.4956 18.7084C55.6298 20.5391 51.8987 20.325 49.1987 18.2467C48.0515 17.3639 47.0907 16.2953 46.1685 15.1881C44.7266 13.4567 43.2828 11.7272 41.8267 10.0067C41.5791 9.71395 41.287 9.45085 40.9852 9.2129C39.6523 8.16114 37.8383 8.15276 36.5151 9.17679C35.1893 10.2028 34.7101 12.0574 35.3776 13.5824C36.0501 15.1204 37.7222 16.0071 39.3763 15.7479C40.5112 15.5699 41.3205 14.8973 42.0628 14.1022C42.3233 13.823 42.5657 13.527 42.8572 13.1917C43.7613 14.3176 44.6299 15.4003 45.5366 16.5288C44.804 17.38 43.9902 18.1229 43.0474 18.7226C39.858 20.7506 34.9571 20.3966 32.3313 16.7687C28.842 11.9484 31.591 5.25285 37.5114 4.39004C40.0289 4.02312 42.2704 4.75116 44.1901 6.42713C45.4089 7.4905 46.422 8.74345 47.4363 9.99447C48.4771 11.2777 49.525 12.5558 50.5877 13.8217C51.0997 14.4324 51.6788 14.9824 52.392 15.3584C54.5936 16.5172 57.1543 15.2552 57.6863 13.0865C58.1873 11.0456 57.0653 9.05878 55.1011 8.56031C54.0809 8.30108 53.0698 8.39652 52.2063 9.02396C51.5879 9.47342 51.0585 10.0467 50.4968 10.5729C50.3433 10.7167 50.2176 10.8908 50.0138 11.1268Z" fill="#2D6F3C"/>
<path d="M14.7848 12.6863C13.094 12.6863 11.5128 12.6863 9.89161 12.6863C9.89161 11.3902 9.89161 10.1591 9.89161 8.88812C13.0791 8.88812 16.2247 8.88812 19.4612 8.88812C19.4677 9.58198 19.4954 10.2617 19.4767 10.9407C19.4303 12.647 18.9834 14.2533 18.1103 15.7152C16.8328 17.8542 14.9357 19.1793 12.5117 19.7088C10.0954 20.2356 7.71717 20.0789 5.47436 18.9814C2.5119 17.5317 0.758546 15.1284 0.182046 11.8931C-0.250651 9.46784 0.073711 7.12509 1.30861 4.98159C2.95814 2.11844 5.45824 0.479225 8.75409 0.0832844C10.8802 -0.172078 12.9069 0.150993 14.7977 1.17438C16.1983 1.93272 17.3513 2.96642 18.218 4.39606C16.9998 5.15635 15.8075 5.89987 14.5887 6.66015C14.3882 6.44025 14.2199 6.2526 14.0471 6.06882C11.7423 3.6145 7.70943 3.74863 5.6575 6.41446C4.44195 7.99371 4.23753 9.82509 4.72182 11.7384C5.18611 13.5743 6.33653 14.8105 8.12213 15.3753C9.91289 15.9422 11.683 15.8796 13.308 14.7969C14.0271 14.3171 14.4926 13.6459 14.7848 12.6863Z" fill="#101218"/>
<path d="M108.06 19.5932C106.602 19.5932 105.218 19.5932 103.771 19.5932C103.771 19.3178 103.771 19.0869 103.771 18.8561C103.772 16.623 103.778 14.3905 103.769 12.1573C103.768 11.7517 103.758 11.3352 103.668 10.9431C103.478 10.1125 103.018 9.49281 102.12 9.33224C101.202 9.16845 100.364 9.31676 99.7191 10.0596C99.3573 10.4762 99.1516 10.9689 99.1071 11.5196C99.0826 11.8188 99.0775 12.1199 99.0768 12.4204C99.0742 14.5459 99.0749 16.6713 99.0749 18.7974C99.0749 19.0321 99.0749 19.2669 99.0749 19.5809C97.6427 19.686 96.2446 19.6177 94.8027 19.6312C94.8027 13.1491 94.8027 6.74379 94.8027 0.295898C96.2098 0.295898 97.5943 0.295898 99.0614 0.295898C99.1194 2.48324 99.0497 4.66285 99.0981 6.93725C99.2671 6.79925 99.376 6.72058 99.4721 6.62901C100.279 5.85776 101.235 5.43345 102.351 5.35349C103.608 5.26321 104.785 5.47601 105.855 6.17697C107.151 7.02624 107.756 8.29273 108.007 9.76235C108.076 10.1622 108.089 10.5749 108.09 10.9818C108.098 13.6657 108.096 16.3495 108.095 19.0334C108.096 19.2017 108.075 19.3694 108.06 19.5932Z" fill="#101218"/>
<path d="M25.3043 19.5914C23.836 19.5914 22.4315 19.5914 20.9832 19.5914C20.9832 14.9504 20.9832 10.3487 20.9832 5.70186C22.3767 5.70186 23.7373 5.70186 25.176 5.70186C25.176 6.39443 25.176 7.08442 25.176 7.86663C25.6132 7.34043 25.9208 6.84518 26.3464 6.49374C26.783 6.13326 27.3169 5.86952 27.8431 5.64511C28.3758 5.41812 28.9587 5.34977 29.5423 5.41812C29.6661 5.86952 29.6977 9.17375 29.5823 9.93597C29.4282 9.94951 29.2637 9.96628 29.0986 9.97789C28.7775 10.0005 28.4538 9.99917 28.1359 10.0443C26.3522 10.2984 25.3243 11.4946 25.305 13.3756C25.2863 15.178 25.303 16.981 25.3043 18.7834C25.3043 19.0374 25.3043 19.2909 25.3043 19.5914Z" fill="#101218"/>
</svg>
