<svg width="675" height="200" viewBox="0 0 675 200" fill="none" xmlns="http://www.w3.org/2000/svg">
<path d="M49.6558 129.621C49.2815 126.504 49.8784 123.53 51.0823 120.667C51.2645 120.232 51.5882 119.847 51.7602 119.402C52.1244 118.502 52.438 117.581 52.7719 116.671C52.8933 116.327 52.9641 115.952 53.1665 115.659C55.0483 112.846 56.9402 110.054 58.8422 107.262C58.9737 107.059 59.2064 106.887 59.257 106.665C59.7122 104.419 61.6851 103.336 62.9902 101.738C63.5972 100.989 64.0828 100.129 64.7303 99.4209C66.8752 97.1243 69.0706 94.8885 71.2357 92.6222C71.7314 92.1063 72.1664 91.5296 72.7229 90.872C72.7937 91.914 73.1781 92.0354 73.8256 91.4891C75.5354 90.0322 77.2553 88.5855 78.9449 87.1185C79.0966 86.987 79.0764 86.6531 79.2282 86.4913C79.5823 86.127 79.9971 85.8033 80.4625 85.6009C81.0189 84.8928 81.5652 84.1744 82.1318 83.4764C82.3038 83.2639 82.5567 83.1121 82.7591 82.9098C84.0338 81.6755 84.0338 81.6755 85.8043 81.2101C85.7841 81.4327 85.7638 81.6452 85.7436 81.8677C85.8144 81.9183 85.8852 81.979 85.9561 82.0296C88.6169 79.3385 91.2878 76.6473 93.9486 73.9561C93.8373 73.8449 93.7361 73.7235 93.6248 73.6122C92.8458 74.3608 92.0668 75.1095 91.2979 75.8683C89.9422 77.2139 88.6472 78.61 87.2308 79.8747C86.9172 80.1478 86.1989 79.9657 85.6525 79.9961C85.6728 79.8241 85.6627 79.6925 85.693 79.6925C86.9273 79.3384 87.6052 78.2256 88.5764 77.5073C88.9204 77.2543 89.7095 77.0823 89.0317 76.3843C89.4768 76.0403 89.9321 75.6963 90.2558 75.4434C90.6403 74.8566 90.9033 74.2597 91.3282 73.8145C92.7548 72.3374 94.3027 70.9817 95.6685 69.454C96.2755 68.7661 96.7106 68.0275 97.5503 67.4711C98.4406 66.8944 99.0071 65.7916 99.6142 64.8507C99.7457 64.6484 99.4624 64.1729 99.3309 63.6873C100.788 61.6335 103.236 60.1362 104.41 57.5462C104.167 57.7182 103.924 57.9003 103.54 58.1734C103.641 57.9003 103.661 57.7789 103.722 57.6979C105.27 55.6947 106.878 53.7421 108.365 51.6985C109.468 50.1809 110.52 48.5925 111.411 46.9434C112.706 44.5356 114.031 42.1075 115.002 39.5478C115.862 37.2816 116.247 34.8231 116.834 32.4557C116.884 32.2635 116.823 32.0409 116.874 31.8487C117.309 30.1389 116.874 28.5606 116.378 26.9014C115.68 24.6048 113.819 23.8258 112.018 22.7736C111.947 22.9052 111.876 22.9962 111.856 23.0873C111.836 23.1783 111.876 23.2896 111.866 23.2491C109.832 22.3588 107.829 21.2358 105.695 20.6086C103.954 20.0926 102.052 20.1432 100.221 19.9914C99.7052 19.951 99.169 20.1331 98.653 20.0825C96.0529 19.8296 93.5641 20.2949 91.0753 21.0436C89.5881 21.4888 87.9795 21.509 86.4518 21.8327C81.0998 22.976 76.0919 25.1613 71.1244 27.3668C68.7165 28.4291 66.4604 29.9062 64.265 31.3833C61.0174 33.5585 57.7394 35.7438 54.7245 38.2124C52.5594 39.9829 50.7384 42.1884 48.897 44.313C48.3811 44.8998 48.3305 45.8913 47.9056 46.65C47.1265 44.6974 48.371 43.1394 48.6947 41.2677C48.0472 41.9557 47.3896 42.6335 46.7623 43.3417C44.7895 45.5877 42.8774 47.8439 41.7746 50.7171C41.1777 52.2752 40.257 53.7219 39.4477 55.1889C39.2959 55.462 38.9114 55.6037 38.6585 55.8263C38.2336 56.2107 37.8289 56.6154 37.4141 56.9999C37.3332 56.3422 37.1207 55.6745 37.1915 55.0371C37.3028 53.9951 37.5861 52.9732 37.8087 51.9413C37.7075 51.9211 37.6165 51.8907 37.5153 51.8705C36.9285 53.0946 36.3316 54.3087 35.6841 55.6442C35.4615 55.3002 35.2086 54.9258 34.895 54.4605C32.9828 55.5733 32.9929 57.7789 32.0925 59.5696C30.9594 58.9423 31.182 57.8699 31.1112 57.0201C31.0302 56.0893 31.2326 55.1282 31.101 54.1165C30.8279 54.7539 30.5446 55.3912 30.1905 56.2107C28.8652 49.6144 32.305 44.4647 34.5307 38.9206C33.9338 39.9019 33.3167 40.863 32.7602 41.8646C32.1532 42.9472 31.5867 44.0499 31.0606 45.1729C30.5547 46.2555 30.1197 47.3785 29.6543 48.4509C29.1788 48.2991 28.7235 48.2587 28.3896 48.026C28.1772 47.8742 27.9951 47.4291 28.0558 47.1761C28.3795 45.8609 28.7943 44.5659 29.1585 43.2608C30.5446 38.3236 32.9525 33.9227 36.3113 30.0782C39.0126 26.9824 41.724 23.8663 44.7086 21.0638C47.1569 18.7571 49.9695 16.8147 52.7213 14.8519C55.7969 12.6666 58.9029 10.5016 62.1707 8.61979C64.4774 7.28433 67.0472 6.40414 69.5259 5.37219C71.3267 4.62352 73.1174 3.79392 74.9891 3.27795C79.5924 2.00319 84.1249 0.384451 88.9507 0.0404685C89.1429 0.0303514 89.3453 0.0708198 89.578 0.192225C85.7031 1.1837 81.7676 1.9526 77.8826 3.81415C78.348 3.99626 78.5604 4.16825 78.7223 4.12778C80.3006 3.70287 81.8485 3.18689 83.4369 2.80244C84.0237 2.6608 84.6914 2.83279 85.3086 2.78221C87.4635 2.56975 89.6185 2.23588 91.7835 2.11448C93.5844 2.01331 95.5572 1.70979 97.1962 2.26623C101.172 3.62193 105.442 2.55963 109.347 4.11767C106.008 2.6608 102.558 1.66932 98.7137 1.5378C99.1083 1.01171 99.3612 0.677847 99.8873 0C99.9986 0.252928 100.11 0.485622 100.15 0.556442C100.798 0.465388 101.435 0.323748 102.073 0.303514C103.064 0.283279 104.045 0.364216 105.037 0.394568C105.189 0.394568 105.371 0.263045 105.502 0.303514C107.475 0.920658 109.448 1.54792 111.33 2.43823C110.895 2.27635 110.47 2.10436 110.035 1.94249C109.994 2.04366 109.944 2.14483 109.903 2.246C110.601 2.54951 111.279 2.91373 111.998 3.13631C113.1 3.49041 114.254 3.68263 115.346 4.05697C116.985 4.62352 118.665 5.14961 120.182 5.9691C122.347 7.1528 124.371 8.58943 126.455 9.91478C126.364 10.0564 126.283 10.2082 126.192 10.3498C125.018 9.68208 123.845 9.01435 122.681 8.34662C122.61 8.45791 122.55 8.5692 122.479 8.68049C123.45 9.40892 124.502 10.0665 125.372 10.8961C126.333 11.8067 127.204 12.8285 127.993 13.8908C128.903 15.1453 129.783 16.4403 130.471 17.8162C131.331 19.526 132.06 21.3168 132.728 23.1176C133.486 25.1512 133.942 27.3162 134.842 29.2789C136.016 31.8285 136.43 34.55 137.149 37.2006C137.513 38.5462 137.402 40.0233 137.432 41.4498C137.533 46.1644 136.177 50.5957 134.67 54.9967C134.387 55.8263 134.255 56.7065 134.012 57.5563C133.82 58.2443 133.689 59.003 133.314 59.5898C131.22 62.9285 129.055 66.2267 126.93 69.5451C126.586 70.0813 126.303 70.6681 125.939 71.1942C125.818 71.3763 125.494 71.4066 125.342 71.5685C125.069 71.872 124.775 72.2059 124.634 72.5802C123.744 74.8566 122.196 76.5765 120.425 77.9929C120.182 78.5797 120.061 79.1867 119.727 79.6217C118.361 81.4125 116.935 83.1425 115.539 84.9029C115.427 84.8219 115.326 84.7511 115.215 84.6702C115.842 83.7394 116.469 82.8086 117.289 81.5946C116.176 82.4444 115.326 83.0919 114.486 83.7394C114.405 83.6686 114.335 83.5876 114.254 83.5168C114.405 83.1728 114.547 82.8289 114.699 82.4849C114.608 82.4039 114.517 82.323 114.426 82.2319C113.06 83.6585 111.674 85.0546 110.348 86.5014C109.084 87.8874 107.799 89.1925 106.059 90.0525C105.239 90.4572 104.673 91.3778 103.995 92.0658L104.025 92.0961C104.197 91.5599 104.238 90.9226 104.572 90.5179C106.757 87.7964 109.003 85.1153 111.239 82.4343C111.441 82.1915 111.724 82.0296 111.967 81.8273C111.906 81.7362 111.846 81.635 111.795 81.544C111.461 81.716 111.067 81.8273 110.804 82.0802C108.426 84.3768 106.069 86.7037 103.691 89.0104C103.368 89.3342 102.983 89.5972 102.831 89.7186C104.976 86.6936 107.253 83.4865 109.539 80.2793C109.418 80.1681 109.296 80.0568 109.165 79.9354C107.081 82.0195 104.996 84.1036 102.902 86.1877C102.953 86.2586 102.993 86.3193 103.044 86.3901C103.438 86.2687 103.823 86.1473 104.217 86.0259C104.288 86.0967 104.349 86.1675 104.42 86.2282C103.317 87.2905 102.214 88.3629 101.122 89.4252C101.031 89.3544 100.94 89.2836 100.838 89.2128C101.273 88.5551 101.708 87.8874 102.133 87.2298C102.083 87.1691 102.032 87.1084 101.982 87.0578C101.658 87.3209 101.344 87.5738 101.02 87.8368C100.221 88.5046 99.3714 89.1217 98.653 89.8704C98.2382 90.3054 98.1371 91.0338 97.7324 91.479C95.9922 93.381 94.2319 95.2628 92.4007 97.0738C90.5088 98.9454 88.7383 100.868 87.4433 103.245C86.9273 104.196 85.7234 104.773 84.8331 105.522C84.9545 105.643 85.0657 105.774 85.1872 105.896C85.521 105.663 85.8448 105.431 86.2292 105.157C86.1685 105.441 86.128 105.643 86.0876 105.835C86.2292 105.957 86.381 106.088 86.5226 106.21C87.2814 105.178 88.0503 104.156 88.8293 103.093C88.718 103.043 88.4955 102.952 88.3032 102.871C89.5881 102.203 90.873 101.525 92.34 100.756C85.086 107.798 79.3496 115.932 73.1073 123.662C73.2793 123.803 73.4412 123.935 73.6132 124.076C74.291 123.277 74.9689 122.478 75.6366 121.668C76.1728 121.021 76.6787 120.353 77.2149 119.706C78.4997 118.138 79.7138 116.499 81.0796 115.011C83.3964 112.502 85.8245 110.084 88.1818 107.616C89.8613 105.855 91.4497 103.984 93.2201 102.325C93.9688 101.626 95.0918 101.333 96.0529 100.858C96.1339 100.959 96.2148 101.06 96.2958 101.151C94.3735 103.174 92.431 105.188 90.529 107.241C89.4364 108.415 88.4246 109.659 87.3623 110.853C87.1296 111.116 86.7958 111.298 86.5732 111.582C85.8245 112.543 85.1062 113.524 84.3879 114.506C83.8618 115.224 83.3762 115.962 82.8299 116.752C83.0828 116.843 83.2851 116.913 83.9023 117.146C82.9108 117.794 82.1621 118.33 81.373 118.795C80.938 119.058 80.4321 119.2 79.9667 119.402C80.0173 119.514 80.0578 119.615 80.1084 119.726C80.6345 119.787 81.1605 119.837 81.7676 119.908C79.3192 123.439 76.6078 126.596 74.7362 130.744C76.6888 130.561 78.2165 130.41 79.7441 130.268C80.6952 130.177 81.6664 130.167 82.6073 130.015C84.0642 129.772 85.5311 129.54 86.9475 129.135C91.6216 127.799 96.2553 126.272 100.96 125.058C103.175 124.491 105.229 123.672 107.273 122.731C108.153 122.326 109.266 122.468 110.207 122.154C111.694 121.658 113.141 121.011 114.588 120.394C115.802 119.878 117.036 119.382 118.209 118.785C119.99 117.885 121.771 116.964 123.48 115.942C125.909 114.475 128.256 112.887 130.664 111.389C133.749 109.467 136.855 107.585 139.951 105.694C140.153 105.572 140.366 105.451 140.589 105.329C140.558 105.764 140.538 106.149 140.508 106.543C140.922 106.483 141.428 106.543 141.742 106.331C143.482 105.208 145.172 104.014 146.881 102.841C148.278 101.879 149.694 100.949 151.06 99.947C153.7 97.9944 156.321 96.0013 158.941 94.0083C161.278 92.2277 163.625 90.4572 165.932 88.6361C166.903 87.8672 167.763 86.9769 168.603 85.9854C160.732 88.2314 153.002 91.2463 144.271 89.2026C145.131 88.9598 145.698 88.8485 146.224 88.6361C146.73 88.4337 147.195 88.1403 147.923 87.7458C145.87 87.3613 144.119 87.0477 142.278 86.7037C142.42 86.3294 142.521 86.0562 142.713 85.5706C141.914 85.5706 141.206 85.6819 140.548 85.5402C139.89 85.3986 139.283 85.0142 138.717 84.7713C138.899 82.6973 140.821 82.7277 141.975 81.5845C141.307 81.4125 140.771 81.2708 140.305 81.1494C141.681 80.6941 143.098 80.2186 144.645 79.7027C143.684 77.8816 141.944 79.217 140.932 78.175C141.013 77.3656 141.438 76.9913 142.41 77.0014C143.573 77.0115 144.433 75.9695 144.099 75.0488C144.605 74.9274 145.101 74.7857 145.607 74.6846C148.905 73.9865 152.193 73.1771 155.521 72.6409C157.605 72.3071 159.659 72.0035 161.602 71.1234C161.865 71.0019 162.32 71.3662 162.634 71.2852C163.2 71.1335 163.716 70.8097 164.263 70.5669C165.123 70.1825 165.962 69.7575 166.853 69.4439C168.056 69.0089 169.281 68.6548 170.505 68.2602C171.375 67.9769 172.245 67.7038 173.105 67.4003C175.523 66.5706 177.88 65.4375 180.369 64.9418C184.284 64.1527 187.704 61.9572 191.639 61.249C192.601 61.0771 193.41 60.0552 194.361 59.3774C194.634 60.2677 195.17 60.3486 195.889 59.9136C196.577 59.4988 197.254 59.0334 198.003 58.7602C198.357 58.6287 198.853 58.912 199.288 59.003C199.116 59.4077 198.974 59.8326 198.752 60.207C198.6 60.4498 198.327 60.6218 197.851 61.0467C198.853 61.0467 199.521 61.0467 200.32 61.0467C200.047 61.502 199.855 61.8257 199.612 62.2405C199.905 62.3518 200.118 62.4226 200.32 62.5036C201.848 63.0904 202.262 64.3145 201.392 65.6905C200.967 66.3582 201.21 66.8742 202.06 66.8438C202.971 66.8033 203.861 66.5808 204.771 66.429C204.498 67.1777 204.084 67.8555 204.033 68.5738C203.972 69.3124 204.266 70.0813 204.428 70.9412C204.974 70.7086 205.52 70.4759 206.077 70.233C206.127 70.4253 206.158 70.4961 206.147 70.4961C204.731 71.3358 204.245 72.8331 203.557 74.1888C203.406 74.4924 203.183 74.9476 203.305 75.1601C203.79 76.0504 203.203 76.5765 202.789 77.1936C201.716 78.782 200.583 80.3299 199.612 81.9689C198.367 84.0733 197.133 86.1979 196.101 88.4135C193.713 93.5227 191.306 98.6318 189.181 103.852C187.178 108.769 185.498 113.828 183.758 118.846C182.888 121.335 182.19 123.894 181.421 126.413C181.28 126.383 181.138 126.343 180.996 126.312C181.259 124.936 181.532 123.56 181.796 122.195C181.674 122.154 181.553 122.104 181.431 122.063C180.743 123.773 180.055 125.473 179.337 127.273C179.135 127.294 178.76 127.334 178.396 127.364C178.346 127.02 178.305 126.666 178.255 126.322C178.133 126.282 178.012 126.241 177.88 126.201C176.666 129.074 175.462 131.937 174.248 134.811C174.157 134.821 174.076 134.831 173.985 134.841C173.985 134.315 173.924 133.769 174.005 133.253C174.086 132.686 174.289 132.14 174.531 131.28C174.015 131.603 173.813 131.745 173.439 131.978C173.489 131.189 173.54 130.531 173.58 129.884C173.52 129.904 173.459 129.924 173.398 129.944C173.226 129.398 172.882 128.842 172.913 128.315C173.054 126.069 173.267 123.823 173.53 121.588C173.651 120.545 173.945 119.514 174.157 118.482C174.026 118.451 173.894 118.411 173.763 118.38C173.267 120.404 172.761 122.427 172.265 124.451C172.134 124.42 172.012 124.39 171.881 124.36C172.053 123.469 172.235 122.569 172.407 121.679C172.316 121.598 172.225 121.527 172.134 121.446C171.587 122.053 171.041 122.66 170.474 123.307C170.636 122.073 170.808 120.798 171.021 119.25C170.495 118.694 170.576 117.591 170.808 116.6C172.063 111.258 173.378 105.926 175.493 100.837C175.604 100.564 175.624 100.261 175.715 99.8054C166.549 109.568 155.815 116.974 144.565 123.995C144.565 123.55 144.565 123.328 144.565 122.923C143.31 123.651 142.157 124.319 141.013 124.997C141.074 125.058 141.135 125.118 141.196 125.189C140.983 125.523 140.852 126.009 140.538 126.181C137.827 127.627 135.054 128.973 132.363 130.46C130.724 131.371 129.207 132.504 127.618 133.516C127.042 133.89 126.435 134.204 125.838 134.548C125.909 134.699 125.989 134.861 126.06 135.013C126.91 134.679 127.811 134.446 128.61 134.011C131.119 132.625 133.618 131.219 136.056 129.722C137.857 128.619 139.557 127.354 141.307 126.171C141.408 126.322 141.499 126.464 141.6 126.616C140.497 127.273 139.405 127.931 138.201 128.659C139.698 128.771 143.472 127.142 146.274 125.209C148.713 123.53 151.12 121.81 153.549 120.11C153.609 120.191 153.68 120.272 153.741 120.353C152.537 121.294 151.353 122.276 150.109 123.156C147.66 124.896 145.182 126.606 142.693 128.295C141.995 128.771 141.236 129.145 140.518 129.57C138.899 130.531 137.23 131.421 135.712 132.514C135.075 132.979 134.761 133.89 134.245 134.679C134.64 135.286 134.265 135.853 132.97 136.298C133.071 135.61 133.183 134.912 133.284 134.204C133.203 134.153 133.122 134.102 133.031 134.042C132.495 134.517 131.959 134.993 131.372 135.519C131.341 135.438 131.291 135.266 131.2 135.013C130.724 135.256 130.259 135.478 129.804 135.721C129.348 135.964 128.913 136.227 128.407 136.51C128.731 136.642 128.964 136.733 129.278 136.864C128.65 137.745 128.225 138.524 126.961 138.615C126.253 138.665 125.595 139.525 124.917 140.011C124.695 140.173 124.442 140.456 124.229 140.426C122.479 140.193 121.669 141.468 120.678 142.51C120.455 142.742 120.111 142.955 119.808 142.985C117.086 143.279 115.721 143.987 113.525 146.466C114.355 146.263 114.881 146.142 115.397 146.02C110.996 148.378 106.17 149.501 101.466 150.968C101.405 150.796 101.334 150.624 101.273 150.452C103.985 149.531 106.706 148.61 109.418 147.69C109.377 147.568 109.327 147.447 109.286 147.325C105.401 147.781 101.87 149.258 98.4001 150.947C98.4204 151.049 98.4507 151.14 98.4709 151.241C99.0982 151.079 99.7255 150.907 100.353 150.745C100.393 150.887 100.434 151.028 100.484 151.16C98.9161 151.676 97.3682 152.273 95.7798 152.677C93.2404 153.325 90.6807 153.912 88.111 154.407C86.9779 154.63 85.7942 154.549 84.6408 154.64C81.6664 154.873 78.7021 155.126 75.7276 155.338C75.3128 155.369 74.898 155.116 74.4731 155.085C73.8863 155.035 73.2793 154.974 72.7128 155.075C71.9135 155.217 71.094 155.885 70.4769 154.731C70.3959 154.569 69.9609 154.59 69.6776 154.559C68.848 154.478 68.0083 154.387 67.1686 154.347C66.2985 154.306 65.4183 154.337 64.5482 154.337C64.4673 154.488 64.3864 154.65 64.3054 154.802C62.6867 153.315 61.0174 151.878 59.4694 150.33C58.9737 149.835 58.8017 149.015 58.4881 148.347C57.9013 147.052 57.1324 146.031 55.6452 145.636C54.9774 145.454 54.4008 144.958 53.8949 144.361C54.9269 144.766 55.9689 145.181 57.0009 145.585C57.0818 145.545 57.1729 145.494 57.2538 145.454C56.5861 144.22 55.9891 142.935 55.2304 141.751C53.9556 139.758 52.4583 137.906 51.2847 135.863C50.2022 133.971 49.494 131.897 49.6761 129.631C49.9492 130.187 50.2325 130.754 50.4854 131.33C50.6574 131.715 50.7788 132.109 50.9205 132.504C51.0115 132.453 51.0925 132.413 51.1835 132.362C51.1835 129.651 51.1835 126.95 51.1835 124.238C51.0216 124.218 50.8496 124.208 50.6878 124.188C50.4753 125.604 50.2831 127.02 50.0504 128.437C49.9796 128.821 49.7874 129.216 49.6558 129.621ZM100.434 75.1702C100.069 75.0994 99.7153 75.0286 99.341 74.9577C99.3511 74.806 99.3714 74.5834 99.4017 74.2394C98.9363 74.4519 98.6227 74.5935 98.2888 74.7453C98.2585 74.5126 98.2382 74.3406 98.2079 74.0776C97.8538 74.3912 97.5503 74.634 97.2569 74.9072C96.0833 76.0099 95.4156 77.4668 94.505 78.7314C92.9065 80.937 90.7718 82.7479 88.8799 84.741C88.6978 84.9332 88.6169 85.2266 88.4955 85.4795C89.2441 85.1963 89.7196 84.569 90.3064 84.4678C91.2271 84.2958 91.2473 84.4476 90.8325 83.5371C94.333 81.1191 97.8437 78.6808 100.383 75.1601C101.122 74.3204 101.87 73.4806 102.609 72.6409C102.457 72.5195 102.305 72.4082 102.154 72.2868C101.516 73.1468 100.869 74.0168 100.241 74.8869C100.221 74.9071 100.373 75.069 100.434 75.1702ZM76.193 94.413C76.3347 94.3523 76.4966 94.3219 76.6078 94.2309C78.4896 92.6526 80.3815 91.0844 82.233 89.4657C83.5583 88.3022 85.1366 87.2703 86.0269 85.8336C86.8767 84.4476 88.8293 84.3667 89.2239 82.667C89.2441 82.5759 89.4363 82.4444 89.5072 82.4646C90.9539 82.8896 91.217 81.544 91.915 80.8661C92.4715 80.2895 93.0279 79.7128 93.5844 79.1361C94.6062 76.708 96.0428 74.634 98.2484 73.4705C98.5822 72.8534 98.7643 72.3172 99.1083 71.9125C100.798 69.9295 102.578 68.0174 104.238 65.994C105.644 64.2741 106.919 62.453 108.254 60.6724C108.143 60.5712 108.021 60.4801 107.91 60.379C107.586 60.6521 107.232 60.8848 106.949 61.1985C104.703 63.7075 102.518 66.2874 100.211 68.7357C97.783 71.3156 95.2031 73.7538 92.7548 76.3134C89.5173 79.6926 86.3607 83.1324 83.1435 86.5317C82.1824 87.5536 81.1201 88.4843 80.159 89.5062C79.3597 90.356 78.611 91.2665 77.8725 92.1872C77.2857 92.9257 76.7596 93.7048 76.2133 94.4737C72.7127 96.8613 70.143 100.079 67.9577 103.63C68.3624 103.599 68.6254 103.437 68.8379 103.225C70.9018 101.151 73.0061 99.1174 74.979 96.9524C75.586 96.2644 75.7985 95.2527 76.193 94.413ZM188.048 64.9216C182.878 66.5099 177.728 68.1084 172.741 70.1926C174.471 70.5163 186.814 66.2165 188.048 64.9216ZM161.399 73.7538C161.44 73.9258 161.48 74.0877 161.521 74.2597C163.484 73.3694 165.73 73.2277 167.581 72.0541C167.52 71.9024 167.47 71.7506 167.409 71.5887C165.416 72.3071 163.403 73.0254 161.399 73.7538ZM87.6355 86.2788C87.0184 86.9971 86.4316 87.6952 85.8448 88.3933C85.9358 88.5046 86.037 88.6057 86.128 88.717C86.988 88.3225 87.8378 87.9178 88.7281 87.503C88.2931 87.0072 88.0402 86.7341 87.6355 86.2788ZM83.0727 84.4779C83.2244 84.6196 83.3762 84.7612 83.5178 84.9029C84.0439 84.3161 84.57 83.7293 85.0961 83.1425C84.9848 83.0413 84.8735 82.9401 84.7724 82.839C84.2058 83.3954 83.6392 83.9316 83.0727 84.4779Z" fill="#075985"/>
<path d="M95.9917 95.8294C97.5598 94.3523 99.1179 92.8651 100.686 91.388C100.747 91.4487 100.807 91.5094 100.868 91.5701C99.3303 93.0776 97.7925 94.585 96.2446 96.0925C96.1637 96.0014 96.0827 95.9205 95.9917 95.8294Z" fill="#075985"/>
<path d="M103.975 92.0954C102.771 93.4107 101.567 94.7158 100.373 96.031C100.292 95.9703 100.221 95.8995 100.14 95.8388C101 94.6854 101.82 93.5017 102.761 92.4192C102.983 92.1561 103.58 92.2168 104.005 92.1258C103.995 92.1157 103.975 92.0954 103.975 92.0954Z" fill="#075985"/>
<path d="M118.34 144.656C120.171 143.806 121.993 142.956 123.824 142.106C123.874 142.217 123.935 142.339 123.986 142.45C122.164 143.31 120.354 144.17 118.532 145.03C118.472 144.898 118.401 144.777 118.34 144.656Z" fill="#075985"/>
<path d="M98.6326 101.981C97.5501 103.074 96.4676 104.166 95.385 105.259C95.3041 105.178 95.2232 105.087 95.1321 105.006C96.2146 103.923 97.3073 102.841 98.3898 101.748C98.4708 101.829 98.5517 101.91 98.6326 101.981Z" fill="#075985"/>
<path d="M133.162 137.381C134.7 136.541 136.238 135.701 137.776 134.872C137.816 134.943 137.857 135.014 137.907 135.084C136.4 135.975 134.892 136.875 133.385 137.765C133.314 137.634 133.243 137.502 133.162 137.381Z" fill="#075985"/>
<path d="M129.722 137.896C130.299 137.268 130.865 136.641 131.442 136.024C131.553 136.115 131.654 136.216 131.766 136.307C131.786 137.42 130.784 137.663 130.076 138.148C129.955 138.057 129.833 137.976 129.722 137.896Z" fill="#075985"/>
<path d="M165.365 111.967C164.222 112.857 163.068 113.747 161.925 114.638C161.864 114.567 161.814 114.486 161.753 114.415C162.896 113.505 164.039 112.594 165.183 111.684C165.243 111.785 165.304 111.876 165.365 111.967Z" fill="#075985"/>
<path d="M95.0812 97.9636C94.2415 98.6516 93.4018 99.3395 92.5317 100.048C93.2804 99.2384 94.0088 98.4492 94.7473 97.65C94.8586 97.7511 94.9699 97.8523 95.0812 97.9636Z" fill="#075985"/>
<path d="M98.814 97.4777C97.9743 98.2971 97.1244 99.1166 96.2847 99.9361C96.1532 99.8046 96.0115 99.6731 95.88 99.5416C96.8108 98.803 97.7416 98.0644 98.6723 97.3259C98.7128 97.3765 98.7634 97.4271 98.814 97.4777Z" fill="#075985"/>
<path d="M137.007 132.667C137.866 132.373 138.514 132.161 139.242 131.908C138.231 133.183 137.927 133.314 137.007 132.667Z" fill="#075985"/>
<path d="M91.9251 80.845C91.6722 79.9041 92.5928 78.5383 93.4831 78.5889C93.5337 78.5889 93.5641 78.9227 93.6045 79.1048C93.038 79.6916 92.4815 80.2683 91.9251 80.845Z" fill="#075985"/>
<path d="M72.5198 69.1505C70.3952 69.6564 68.2706 70.1622 66.1359 70.6579C66.1157 70.5871 66.1056 70.5062 66.0853 70.4354C68.2099 69.9194 70.3345 69.4034 72.4692 68.8976C72.4794 68.9785 72.4996 69.0594 72.5198 69.1505Z" fill="black"/>
<path d="M21.4178 85.3887C20.0014 87.1187 18.5951 88.8386 17.1788 90.5687C17.0573 90.4675 16.9359 90.3765 16.8247 90.2753C18.2309 88.5453 19.6372 86.8152 21.0435 85.0751C21.1649 85.1864 21.2964 85.2875 21.4178 85.3887Z" fill="black"/>
<path d="M14.5991 174.804C14.5991 175.107 14.5991 175.33 14.5991 175.543C14.5283 175.573 14.4575 175.603 14.3867 175.634C13.0411 173.58 11.4628 171.647 10.4106 169.452C8.28605 165.011 6.19181 160.529 4.58319 155.885C3.45007 152.607 2.87339 149.076 2.5193 145.606C2.05391 141.124 2.03367 136.592 1.88192 132.079C1.84145 130.966 2.07414 129.833 2.1652 128.71C2.17531 128.528 2.11461 128.346 1.94262 128.154C0.546457 130.754 1.05231 133.708 0.242944 136.42C0.0507184 130.268 0.961259 124.218 2.31695 118.259C3.68276 112.23 6.13111 106.584 9.65187 101.435C9.04484 102.972 8.43781 104.51 7.83078 106.048C9.81374 104.965 10.2083 102.881 11.2706 101.253C13.3446 98.0757 15.277 94.8079 17.442 91.702C19.2227 89.1524 21.2562 86.7749 23.1785 84.3165C23.2897 84.1748 23.3707 84.0028 23.6236 83.5678C22.8952 83.9725 22.4399 84.2254 21.7823 84.5896C34.1555 69.7377 49.9483 61.0268 68.1086 56.6562C67.37 57.6578 66.7832 57.759 65.2758 57.9614C63.8796 58.1536 62.5442 58.7505 61.1784 59.1754C61.2087 59.2867 61.2289 59.3879 61.2593 59.4992C62.9994 59.1349 64.7396 58.7808 66.4797 58.3964C67.2587 58.2244 68.3615 58.2345 68.7358 57.7287C69.6767 56.4438 71.083 57.1823 72.2262 56.6765C72.115 56.8384 72.0037 56.9901 71.7912 57.3037C74.5026 57.1419 77.1229 56.9901 79.7331 56.8384C79.7534 57.0103 79.7736 57.1823 79.7939 57.3543C77.5479 57.9816 75.3019 58.6089 73.0559 59.2361C73.0356 59.3171 73.0255 59.398 73.0053 59.4789C73.6224 59.5902 74.2294 59.7926 74.8466 59.7824C78.0739 59.7521 81.3013 59.6104 84.5287 59.6408C85.8742 59.6509 87.2198 59.9949 88.5654 60.177C88.5654 60.2883 88.5654 60.3996 88.5654 60.5109C87.7763 60.5513 86.9972 60.6019 86.2081 60.6424C85.7731 60.6626 85.3482 60.6424 84.9131 60.6424C84.043 60.6525 83.3247 60.8447 83.4259 62.0386C84.2656 62.3016 85.166 62.595 86.4408 63.0098C85.3178 63.2324 84.5287 63.4347 83.7294 63.5561C80.4717 64.0316 77.214 64.6892 73.936 64.8916C71.1943 65.0535 69.0495 66.743 66.4291 67.2489C63.8493 67.7446 61.4009 68.9182 58.8919 69.8085C58.1331 70.0716 57.344 70.2941 56.6155 70.6381C56.1603 70.8607 55.7859 71.2654 55.3812 71.5891C55.4723 71.7712 55.5532 71.9432 55.6443 72.1253C60.4196 70.5875 65.1949 69.0598 69.9701 67.522C70.0106 67.6434 70.0612 67.7547 70.1017 67.8761C69.8487 67.9874 69.6059 68.119 69.3429 68.1999C67.7545 68.6349 66.1459 69.0497 64.5575 69.505C64.3551 69.5657 64.2135 69.8389 64.0415 70.0108C64.0921 70.1019 64.1427 70.193 64.1933 70.284C63.1107 70.628 62.0383 70.972 60.9558 71.316C60.9962 71.4475 61.0367 71.579 61.0671 71.7206C62.1799 71.4576 63.3029 71.1946 64.4158 70.9315C64.4259 70.972 64.4462 71.0124 64.4563 71.0529C63.3131 71.4981 62.1799 71.9533 61.0367 72.3985C61.0671 72.4997 61.0974 72.5907 61.1278 72.6919C63.2827 72.095 65.4377 71.4879 67.5926 70.891C67.6432 71.0226 67.6938 71.1541 67.7444 71.2856C65.8525 72.095 63.9504 72.9043 62.0585 73.7137C62.0889 73.7744 62.1091 73.8351 62.1395 73.8958C65.1948 73.0966 68.2401 72.2973 71.2955 71.4981C71.3359 71.6094 71.3663 71.7206 71.4068 71.8319C70.9616 72.0444 70.5165 72.2569 69.7981 72.6008C72.9041 72.2467 75.6863 71.923 78.4786 71.5992C78.4786 71.6296 78.4786 71.6498 78.4786 71.6802C76.8498 72.095 75.1906 72.4288 73.6022 72.965C72.5196 73.3293 71.518 73.9666 70.4962 74.5231C70.3546 74.604 70.3445 74.9075 70.2129 75.292C68.3312 75.1908 66.7124 76.6274 64.8711 77.5582C63.3738 78.317 61.7146 78.7622 60.1869 79.4501C59.1347 79.9256 58.1533 80.5731 57.1821 81.1903C56.6864 81.5039 56.3019 81.9996 55.8062 82.2829C54.4707 83.0518 53.0543 83.6993 51.7492 84.5087C49.8573 85.6721 48.0261 86.9267 46.1949 88.1711C45.8104 88.4341 45.5171 88.8489 45.2844 89.2941C50.6363 85.9251 55.968 82.5965 62.2407 80.7451C62.0687 81.0486 61.9776 81.4634 61.7247 81.6354C60.6725 82.374 59.6001 83.0619 58.4973 83.7195C55.2497 85.662 51.8908 87.4325 48.7545 89.5369C43.3722 93.1689 38.6273 97.6002 34.5501 102.618C32.1523 105.552 29.7445 108.527 28.0144 112.027C26.6082 114.86 25.1513 117.602 24.433 120.708C24.18 121.81 23.5629 122.842 22.9862 123.854C22.9053 121.335 23.9575 119.099 24.8174 116.863C25.7077 114.536 26.9521 112.341 28.1055 110.125C29.2285 107.97 30.4425 105.866 31.6161 103.731C31.515 103.65 31.4239 103.579 31.3227 103.499C30.8371 103.954 30.3515 104.409 29.8659 104.864C29.8153 104.834 29.7647 104.794 29.704 104.763C30.4324 103.61 31.1609 102.456 31.8893 101.303C31.8387 101.253 31.7881 101.202 31.7274 101.141C31.5251 101.323 31.262 101.465 31.1204 101.688C28.844 105.208 26.4058 108.638 24.4026 112.311C23.1683 114.577 22.5917 117.197 21.7216 119.656C21.4383 120.455 21.0235 121.224 20.8616 122.043C20.1737 125.392 19.3744 128.731 18.9596 132.12C18.5954 135.064 18.4538 138.069 18.6662 141.023C18.8787 144.058 19.5363 147.073 20.1838 150.058C21.3169 155.258 23.7855 159.912 26.5373 164.383C28.5709 167.692 31.1912 170.575 34.1758 173.064C36.2093 174.764 38.4047 176.291 40.6001 177.778C42.6944 179.195 44.8392 180.591 47.0751 181.775C48.9063 182.746 50.9095 183.404 52.8418 184.203C54.1672 184.749 55.4723 185.346 56.8078 185.832C57.4755 186.074 58.214 186.186 58.9324 186.246C60.2982 186.358 61.664 186.368 63.0298 186.469C64.1528 186.55 65.2657 186.752 66.3887 186.813C68.058 186.904 69.7374 186.924 71.4169 186.955C71.771 186.965 72.1251 186.894 72.4893 186.945C70.2838 187.612 67.8658 187.015 65.6704 187.774C65.6602 187.936 65.64 188.088 65.6299 188.25C66.3179 188.553 67.0058 188.847 67.8455 189.211C67.0969 189.363 66.3887 189.504 65.6805 189.656C65.6602 189.798 65.64 189.939 65.6198 190.081C66.7023 190.253 67.7747 190.425 68.8572 190.597C68.8572 190.647 68.8674 190.698 68.8674 190.738C67.8051 190.738 66.7428 190.738 65.6704 190.738C65.6906 190.941 65.6805 191.012 65.6906 191.012C68.9078 191.791 72.0037 193.369 75.4941 192.205C76.4552 191.882 77.4872 191.71 78.6304 191.912C79.6522 192.084 80.8157 191.497 81.9184 191.234C82.6874 191.052 83.4563 190.84 84.3061 190.809C83.8104 191.143 83.3045 191.477 82.8088 191.821C82.8593 191.952 82.9099 192.084 82.9605 192.205C85.3178 191.507 87.6852 190.799 90.0425 190.101C90.0728 190.131 90.1032 190.162 90.1335 190.192C88.6362 190.951 87.1389 191.72 85.6213 192.448C85.0143 192.742 84.296 192.823 83.7496 193.187C81.6959 194.563 79.3689 195.2 77.0116 195.696C73.7033 196.394 70.3242 196.444 66.9552 196.647C64.3956 196.799 61.8663 196.9 59.3269 196.627C58.0117 196.485 56.7066 196.303 55.3003 196.131C56.2715 197.163 64.4968 199.277 68.3615 199.702C66.2167 199.793 64.082 199.915 61.9371 199.975C60.4297 200.016 58.9627 200.077 57.435 199.53C56.0186 199.014 54.3797 199.176 52.852 198.923C51.8403 198.761 50.869 198.347 49.8573 198.134C49.3312 198.023 48.7646 198.114 48.5623 198.114C47.4393 197.588 46.5793 196.88 45.6992 196.849C43.4329 196.768 41.7737 195.382 39.9628 194.421C35.3696 191.973 30.9484 189.221 27.0634 185.72C25.1209 183.97 23.3302 182.048 21.4585 180.207C20.3659 179.134 19.3339 177.971 18.1502 177.02C17.1183 176.2 15.8941 175.593 14.5991 174.804ZM13.6178 100.969C13.9314 100.332 14.245 99.6844 14.6396 98.8952C13.0917 99.6641 12.8388 100.069 13.0613 101.333C13.2738 101.192 13.466 101.06 13.6582 100.929C13.0107 102.305 12.3633 103.671 11.7158 105.046C11.6045 104.996 11.5033 104.945 11.392 104.885C11.6551 104.308 11.8979 103.721 12.1913 103.155C12.4442 102.659 12.7477 102.173 13.031 101.688C12.8489 101.617 12.6769 101.546 12.4948 101.465C9.30788 107.717 6.0704 113.949 5.39256 121.112C6.59649 120.151 6.16146 118.765 6.35368 117.551C6.58638 117.551 6.78872 117.551 6.99106 117.551C6.54591 120.951 5.40267 124.249 5.46338 127.689C6.37392 123.905 7.18329 120.111 8.06348 116.327C8.27594 115.396 8.75144 114.516 9.05495 113.606C10.5422 108.982 12.8185 104.723 15.2163 100.534C15.8638 99.4112 16.8654 98.4905 17.6242 97.4282C19.3947 94.9597 20.9932 92.3596 22.8952 90.0023C24.7972 87.6652 26.9926 85.571 29.0363 83.3452C29.5219 82.809 29.9165 82.1817 30.3515 81.595C30.2706 81.514 30.1896 81.4331 30.1087 81.342C29.7242 81.6658 29.2791 81.9389 28.9553 82.3234C28.6721 82.6573 28.581 83.1631 28.2775 83.4767C26.3451 85.5204 24.3419 87.4932 22.4298 89.5571C21.3371 90.7307 20.3558 92.0156 19.3947 93.3005C18.0794 95.0507 16.8249 96.8414 15.5198 98.6018C14.9229 99.4112 14.2552 100.18 13.6178 100.969ZM16.8755 129.914C15.5906 138.028 16.2786 145.95 19.0102 153.649C19.2227 153.629 19.425 153.609 19.6375 153.588C17.0879 145.859 16.6327 137.917 16.8755 129.914ZM11.908 114.931C13.4154 111.451 14.9229 107.97 16.4303 104.48C14.7711 104.895 11.4628 112.149 11.908 114.931ZM22.9356 86.694C22.531 87.2201 22.3084 87.4831 22.106 87.7563C21.327 88.8085 20.5682 89.8708 19.769 90.9027C18.6156 92.4 17.3915 93.8468 16.2685 95.3644C15.7727 96.0422 15.7323 97.0539 14.6598 97.317C14.4777 97.3574 14.4676 98.0454 14.3766 98.44C14.498 98.4804 14.6194 98.5209 14.7408 98.5512C14.9937 98.1971 15.2567 97.843 15.5097 97.4889C16.491 96.1333 17.4926 94.7877 18.4538 93.4117C19.9309 91.3074 22.4399 89.9112 22.9356 86.694ZM18.7269 99.7855C18.8382 99.9171 18.9394 100.059 19.0507 100.19C19.3643 99.9171 19.7386 99.6945 19.9916 99.3707C21.1753 97.8532 22.3387 96.3154 23.4617 94.7573C23.8462 94.2211 24.089 93.5736 24.4026 92.9767C24.3015 92.9261 24.2003 92.8654 24.0991 92.8148C21.6609 94.6561 20.285 97.2967 18.7269 99.7855ZM8.29617 132.049C8.76156 128.609 9.21683 125.18 9.68222 121.74C9.0246 123.379 8.58957 125.058 8.23547 126.738C7.86113 128.488 7.45645 130.248 8.29617 132.049ZM37.9798 79.7536C36.3813 79.9256 32.6177 83.3958 32.122 84.9943C34.1555 83.1732 36.0677 81.4634 37.9798 79.7536ZM6.34357 109.225C6.50544 109.316 6.67743 109.407 6.83931 109.508C7.18329 108.749 7.53739 107.991 7.88137 107.232C7.72961 107.161 7.56774 107.08 7.41598 107.009C7.06188 107.748 6.70778 108.486 6.34357 109.225ZM23.7147 83.0417C23.8361 83.153 23.9575 83.2744 24.0789 83.3857C24.8478 82.5358 25.6167 81.6759 26.5171 80.6743C25.475 81.5545 24.5949 82.293 23.7147 83.0417Z" fill="black"/>
<path d="M12.1005 174.865C13.8002 176.868 15.51 178.861 17.2097 180.864C17.0984 180.955 16.9871 181.046 16.8758 181.147C15.1964 179.134 13.5068 177.111 11.8273 175.097C11.9184 175.016 12.0095 174.935 12.1005 174.865Z" fill="black"/>
<path d="M0.333865 142.732C0.222577 141.316 0.111288 139.9 0 138.483C0.171991 138.473 0.343982 138.463 0.515973 138.453C0.586793 139.879 0.66773 141.306 0.73855 142.732C0.607027 142.732 0.475505 142.732 0.333865 142.732Z" fill="black"/>
<path d="M11.169 105.906C10.6834 107.09 10.2079 108.263 9.72227 109.447C9.59075 109.396 9.45923 109.336 9.32771 109.285C9.82345 108.101 10.3192 106.928 10.8149 105.744C10.9363 105.795 11.0577 105.855 11.169 105.906Z" fill="black"/>
<path d="M242.972 45.7802C242.972 31.7743 251.874 17.5309 273.477 17.5309C290.569 17.5309 302.082 28.3321 302.082 44.1185C302.082 49.5784 300.895 54.2075 298.64 58.0057C296.385 61.6853 293.536 64.7713 290.331 67.0265C287.127 69.2817 282.735 71.893 277.394 74.7417C266.949 80.0829 261.607 83.6437 259.233 89.8158H302.32V102.397H243.566V95.3945C243.566 89.6972 244.753 84.9494 247.127 81.0325C249.619 77.1155 252.587 74.0295 256.029 71.7743C259.471 69.4004 263.981 66.9078 269.56 64.1778C273.952 61.9227 277.394 60.1422 279.886 58.5992C284.99 55.3945 288.788 50.8841 288.788 44.5933C288.788 35.5725 282.854 30.1125 273.477 30.1125C261.963 30.1125 257.097 37.4716 257.097 46.4924C257.097 48.6289 257.334 50.6467 257.809 52.4271L243.447 51.4775C243.091 49.9345 242.972 48.0354 242.972 45.7802ZM343.306 102.397V19.3113H359.449L388.41 87.442L417.372 19.3113H433.514V102.397H420.458V43.2876L395.294 102.397H381.526L356.481 43.6437L356.363 102.397H343.306ZM442.272 102.397L476.219 19.3113H491.531L525.477 102.397H511.115L502.213 80.2016H465.536L456.516 102.397H442.272ZM470.522 67.7387H497.109L483.815 34.7416L470.522 67.7387ZM534.214 102.397V19.3113H571.247C587.033 19.3113 597.122 29.7565 597.122 44.2372C597.122 55.6318 591.069 64.4152 580.98 67.8574L597.478 102.516H583.235L567.686 69.2817H547.271V102.397H534.214ZM547.271 56.7001H570.416C578.962 56.7001 584.066 51.9523 584.066 44.2372C584.066 36.6407 578.962 31.893 570.416 31.893H547.271V56.7001ZM603.195 74.623L615.539 70.35C618.032 83.7624 626.459 91.5963 638.685 91.5963C650.435 91.5963 657.557 86.1363 657.676 77.9464C657.676 70.9434 651.148 66.6704 636.786 65.1274C617.676 63.1096 608.18 54.801 608.18 40.2016C608.18 27.1452 620.643 17.6496 637.379 17.6496C645.094 17.6496 651.86 19.7861 657.438 24.1778C663.017 28.4508 666.697 34.1482 668.358 41.3885L655.777 46.255C653.522 36.4033 646.4 30.1125 637.379 30.1125C627.884 30.1125 621.237 34.3855 621.237 40.439C621.237 47.2045 626.222 50.7654 638.685 52.071C660.05 54.3262 670.732 62.2787 670.732 77.4716C670.732 93.3767 657.913 104.178 638.685 104.178C629.308 104.178 621.355 101.567 615.065 96.2253C608.774 90.8841 604.738 83.7624 603.195 74.623Z" fill="black"/>
<path d="M282.087 180.602H244.674V124.998H282.087V129.923H249.837V149.702H278.83V154.627H249.837V175.677H282.087V180.602ZM287.458 124.998H294.13L311.367 148.51L328.604 124.998H335.197L314.783 152.72L335.197 180.602H328.525L311.367 157.089L294.13 180.602H287.537L307.872 152.8L287.458 124.998ZM364.895 123.807C371.091 123.807 376.333 125.475 380.543 128.89C384.753 132.226 387.454 136.675 388.487 142.235L383.323 143.427C381.735 134.53 374.745 128.731 364.895 128.731C352.026 128.493 342.494 139.296 342.733 151.767C342.733 166.542 351.947 176.868 365.689 176.868C376.413 176.868 385.309 169.799 386.262 159.472L391.505 160.267C390.313 172.658 378.954 182.031 365.689 181.793C349.008 182.031 337.331 169.401 337.57 152.959C337.331 136.675 348.69 123.489 364.895 123.807ZM406.455 180.602H401.291V124.998H406.455V149.702H440.532V124.998H445.695V180.602H440.532V154.627H406.455V180.602ZM458.558 180.602H452.918L475.795 124.998H481.753L504.709 180.602H498.99L492 163.285H465.628L458.558 180.602ZM478.814 130.876L467.614 158.36H489.934L478.814 130.876ZM517.072 180.602H511.909V124.998H518.661L553.056 173.691V124.998H558.219V180.602H551.705L517.231 131.829L517.072 180.602ZM596.216 123.807C608.528 123.807 617.901 131.273 619.967 142.235L614.724 143.427C613.135 134.53 606.066 128.731 596.216 128.731C583.268 128.493 573.816 139.376 573.975 151.847C573.975 166.542 583.189 176.868 597.01 176.868C606.225 176.868 613.532 171.308 615.757 162.65H597.09V157.804H621.158V180.602H616.233V171.07C612.341 177.742 605.351 181.793 596.534 181.793C580.25 182.031 568.652 169.401 568.811 152.959C568.573 136.675 580.011 123.489 596.216 123.807ZM669.481 180.602H632.068V124.998H669.481V129.923H637.231V149.702H666.224V154.627H637.231V175.677H669.481V180.602Z" fill="#075985"/>
</svg>
